<svg width="173" height="48" viewBox="0 0 173 48" fill="none" xmlns="http://www.w3.org/2000/svg">
<path d="M19.4972 47.9873L6.49342 34.9492C2.33575 30.7806 0 25.1268 0 19.2313C0 13.3361 2.33575 7.6822 6.49342 3.51357L9.98853 0.00927734L22.9997 13.0547C27.1541 17.224 29.4871 22.8768 29.4858 28.7705C29.4844 34.6638 27.1487 40.3156 22.9924 44.4828L19.4972 47.9873Z" fill="url(#paint0_linear_2980_6134)"/>
<path d="M16.0039 13.0528L29.0225 0L32.5176 3.50429C34.5784 5.56867 36.2131 8.02 37.3286 10.7182C38.4441 13.4165 39.0182 16.3086 39.0182 19.2295C39.0182 22.1503 38.4441 25.0425 37.3286 27.7408C36.2131 30.4389 34.5784 32.8901 32.5176 34.9547L19.5063 48L16.0039 44.4885C11.8462 40.3197 9.51047 34.6659 9.51047 28.7707C9.51047 22.8752 11.8462 17.2214 16.0039 13.0528Z" fill="url(#paint1_linear_2980_6134)"/>
<path d="M68.555 38.424C66.526 38.424 64.7572 38.099 63.2485 37.449C61.7398 36.799 60.5692 35.889 59.7368 34.719C58.9305 33.549 58.5273 32.171 58.5273 30.585V29.61C58.5273 29.48 58.5663 29.376 58.6443 29.298C58.7484 29.194 58.8654 29.142 58.9955 29.142H62.4681C62.5982 29.142 62.7022 29.194 62.7803 29.298C62.8843 29.376 62.9363 29.48 62.9363 29.61V30.351C62.9363 31.547 63.4696 32.548 64.5361 33.354C65.6026 34.134 67.0593 34.524 68.9061 34.524C70.4929 34.524 71.6894 34.186 72.4958 33.51C73.3022 32.834 73.7054 31.963 73.7054 30.897C73.7054 30.169 73.4843 29.558 73.042 29.064C72.5998 28.544 71.9625 28.076 71.1302 27.66C70.3238 27.244 69.1012 26.724 67.4624 26.1C65.6156 25.424 64.1199 24.787 62.9754 24.189C61.8308 23.591 60.8684 22.785 60.088 21.771C59.3337 20.731 58.9565 19.444 58.9565 17.91C58.9565 15.622 59.7889 13.815 61.4536 12.489C63.1184 11.163 65.3425 10.5 68.1258 10.5C70.0767 10.5 71.7935 10.838 73.2762 11.514C74.7849 12.19 75.9554 13.139 76.7878 14.361C77.6202 15.557 78.0364 16.948 78.0364 18.534V19.197C78.0364 19.327 77.9844 19.444 77.8803 19.548C77.8023 19.626 77.6982 19.665 77.5682 19.665H74.0565C73.9265 19.665 73.8094 19.626 73.7054 19.548C73.6273 19.444 73.5883 19.327 73.5883 19.197V18.768C73.5883 17.546 73.0811 16.519 72.0666 15.687C71.0781 14.829 69.6995 14.4 67.9307 14.4C66.5 14.4 65.3815 14.699 64.5751 15.297C63.7947 15.895 63.4046 16.74 63.4046 17.832C63.4046 18.612 63.6127 19.249 64.0288 19.743C64.445 20.237 65.0693 20.692 65.9017 21.108C66.7341 21.498 68.0217 22.005 69.7645 22.629C71.6114 23.331 73.0811 23.968 74.1736 24.54C75.2921 25.112 76.2415 25.918 77.0219 26.958C77.8283 27.972 78.2315 29.246 78.2315 30.78C78.2315 33.12 77.3601 34.979 75.6172 36.357C73.9004 37.735 71.5464 38.424 68.555 38.424Z" fill="#484848"/>
<path d="M99.5674 25.905C99.6714 26.555 99.7235 27.283 99.7235 28.089L99.6845 29.298C99.6845 29.61 99.5284 29.766 99.2162 29.766H87.0035C86.8735 29.766 86.8085 29.831 86.8085 29.961C86.8865 30.819 87.0035 31.404 87.1596 31.716C87.7839 33.588 89.3056 34.537 91.7247 34.563C93.4936 34.563 94.8982 33.835 95.9387 32.379C96.0428 32.223 96.1728 32.145 96.3289 32.145C96.4329 32.145 96.524 32.184 96.602 32.262L99.0211 34.251C99.2553 34.433 99.2943 34.641 99.1382 34.875C98.3318 36.019 97.2523 36.903 95.8997 37.527C94.5731 38.151 93.0904 38.463 91.4516 38.463C89.4227 38.463 87.6929 38.008 86.2622 37.098C84.8575 36.188 83.8301 34.914 83.1798 33.276C82.5815 31.872 82.2823 29.922 82.2823 27.426C82.2823 25.918 82.4384 24.696 82.7506 23.76C83.2708 21.94 84.2463 20.51 85.6769 19.47C87.1336 18.404 88.8764 17.871 90.9054 17.871C96.0298 17.871 98.9171 20.549 99.5674 25.905ZM90.9054 21.771C89.9429 21.771 89.1365 22.018 88.4862 22.512C87.8619 22.98 87.4197 23.643 87.1596 24.501C87.0035 24.943 86.8995 25.515 86.8475 26.217C86.7954 26.347 86.8475 26.412 87.0035 26.412H94.9242C95.0543 26.412 95.1193 26.347 95.1193 26.217C95.0673 25.567 94.9893 25.073 94.8852 24.735C94.6511 23.799 94.1829 23.071 93.4806 22.551C92.8042 22.031 91.9458 21.771 90.9054 21.771Z" fill="#484848"/>
<path d="M113.81 17.871C115.917 17.871 117.594 18.495 118.843 19.743C120.118 20.991 120.755 22.694 120.755 24.852V37.644C120.755 37.774 120.703 37.891 120.599 37.995C120.521 38.073 120.417 38.112 120.287 38.112H116.697C116.567 38.112 116.45 38.073 116.346 37.995C116.268 37.891 116.229 37.774 116.229 37.644V25.788C116.229 24.592 115.891 23.63 115.214 22.902C114.538 22.148 113.641 21.771 112.522 21.771C111.404 21.771 110.493 22.135 109.791 22.863C109.114 23.591 108.776 24.553 108.776 25.749V37.644C108.776 37.774 108.724 37.891 108.62 37.995C108.542 38.073 108.438 38.112 108.308 38.112H104.718C104.588 38.112 104.471 38.073 104.367 37.995C104.289 37.891 104.25 37.774 104.25 37.644V18.651C104.25 18.521 104.289 18.417 104.367 18.339C104.471 18.235 104.588 18.183 104.718 18.183H108.308C108.438 18.183 108.542 18.235 108.62 18.339C108.724 18.417 108.776 18.521 108.776 18.651V19.899C108.776 19.977 108.802 20.029 108.854 20.055C108.906 20.081 108.945 20.055 108.971 19.977C110.038 18.573 111.651 17.871 113.81 17.871Z" fill="#484848"/>
<path d="M136.438 21.381C136.438 21.511 136.386 21.628 136.282 21.732C136.204 21.81 136.1 21.849 135.97 21.849H131.99C131.86 21.849 131.795 21.914 131.795 22.044V31.443C131.795 32.431 132.003 33.146 132.419 33.588C132.861 34.03 133.551 34.251 134.487 34.251H135.658C135.788 34.251 135.892 34.303 135.97 34.407C136.074 34.485 136.126 34.589 136.126 34.719V37.644C136.126 37.93 135.97 38.099 135.658 38.151L133.629 38.19C131.574 38.19 130.039 37.839 129.025 37.137C128.01 36.435 127.49 35.109 127.464 33.159V22.044C127.464 21.914 127.399 21.849 127.269 21.849H125.045C124.915 21.849 124.798 21.81 124.694 21.732C124.616 21.628 124.577 21.511 124.577 21.381V18.651C124.577 18.521 124.616 18.417 124.694 18.339C124.798 18.235 124.915 18.183 125.045 18.183H127.269C127.399 18.183 127.464 18.118 127.464 17.988V13.425C127.464 13.295 127.503 13.191 127.581 13.113C127.685 13.009 127.802 12.957 127.932 12.957H131.327C131.457 12.957 131.561 13.009 131.639 13.113C131.743 13.191 131.795 13.295 131.795 13.425V17.988C131.795 18.118 131.86 18.183 131.99 18.183H135.97C136.1 18.183 136.204 18.235 136.282 18.339C136.386 18.417 136.438 18.521 136.438 18.651V21.381Z" fill="#484848"/>
<path d="M150.134 17.949C150.967 17.949 151.695 18.118 152.319 18.456C152.527 18.56 152.606 18.755 152.553 19.041L151.89 22.551C151.864 22.863 151.682 22.954 151.344 22.824C150.954 22.694 150.499 22.629 149.978 22.629C149.64 22.629 149.38 22.642 149.198 22.668C148.105 22.72 147.195 23.11 146.467 23.838C145.738 24.54 145.374 25.463 145.374 26.607V37.644C145.374 37.774 145.322 37.891 145.218 37.995C145.14 38.073 145.036 38.112 144.906 38.112H141.316C141.186 38.112 141.069 38.073 140.965 37.995C140.887 37.891 140.848 37.774 140.848 37.644V18.651C140.848 18.521 140.887 18.417 140.965 18.339C141.069 18.235 141.186 18.183 141.316 18.183H144.906C145.036 18.183 145.14 18.235 145.218 18.339C145.322 18.417 145.374 18.521 145.374 18.651V20.406C145.374 20.51 145.387 20.575 145.413 20.601C145.465 20.601 145.517 20.562 145.569 20.484C146.662 18.794 148.183 17.949 150.134 17.949Z" fill="#484848"/>
<path d="M172.344 25.905C172.448 26.555 172.5 27.283 172.5 28.089L172.461 29.298C172.461 29.61 172.305 29.766 171.993 29.766H159.78C159.65 29.766 159.585 29.831 159.585 29.961C159.663 30.819 159.78 31.404 159.936 31.716C160.56 33.588 162.082 34.537 164.501 34.563C166.27 34.563 167.675 33.835 168.715 32.379C168.819 32.223 168.949 32.145 169.105 32.145C169.209 32.145 169.301 32.184 169.379 32.262L171.798 34.251C172.032 34.433 172.071 34.641 171.915 34.875C171.108 36.019 170.029 36.903 168.676 37.527C167.35 38.151 165.867 38.463 164.228 38.463C162.199 38.463 160.469 38.008 159.039 37.098C157.634 36.188 156.607 34.914 155.956 33.276C155.358 31.872 155.059 29.922 155.059 27.426C155.059 25.918 155.215 24.696 155.527 23.76C156.047 21.94 157.023 20.51 158.453 19.47C159.91 18.404 161.653 17.871 163.682 17.871C168.806 17.871 171.694 20.549 172.344 25.905ZM163.682 21.771C162.719 21.771 161.913 22.018 161.263 22.512C160.638 22.98 160.196 23.643 159.936 24.501C159.78 24.943 159.676 25.515 159.624 26.217C159.572 26.347 159.624 26.412 159.78 26.412H167.701C167.831 26.412 167.896 26.347 167.896 26.217C167.844 25.567 167.766 25.073 167.662 24.735C167.428 23.799 166.959 23.071 166.257 22.551C165.581 22.031 164.722 21.771 163.682 21.771Z" fill="#484848"/>
<defs>
<linearGradient id="paint0_linear_2980_6134" x1="29.498" y1="24.0019" x2="-0.00480072" y2="24.0019" gradientUnits="userSpaceOnUse">
<stop stop-color="#F9575E"/>
<stop offset="0.27" stop-color="#F8555B"/>
<stop offset="0.49" stop-color="#F44F51"/>
<stop offset="0.68" stop-color="#EE4540"/>
<stop offset="0.87" stop-color="#E63728"/>
<stop offset="1" stop-color="#DE2A13"/>
</linearGradient>
<linearGradient id="paint1_linear_2980_6134" x1="-88483.1" y1="74252.8" x2="-89274.7" y2="74059" gradientUnits="userSpaceOnUse">
<stop stop-color="#F9575E"/>
<stop offset="0.27" stop-color="#F8555B"/>
<stop offset="0.49" stop-color="#F44F51"/>
<stop offset="0.68" stop-color="#EE4540"/>
<stop offset="0.87" stop-color="#E63728"/>
<stop offset="1" stop-color="#DE2A13"/>
</linearGradient>
</defs>
</svg>
